<svg xmlns="http://www.w3.org/2000/svg" viewBox="0 0 440 150" preserveAspectRatio="none">
  <defs>
    <linearGradient id="tg" x1="0" y1="150" x2="440" y2="150" gradientUnits="userSpaceOnUse">
      <stop stop-color="#174E86"/>
      <stop offset="0.458145" stop-color="#1884DC"/>
      <stop offset="1" stop-color="#36C09B"/>
    </linearGradient>
  </defs>
  <path d="M0,0 L440,0 L440,120.084C400.273,136.866 344.055,150 236.116,120.084C149.765,96.151 42.726,130.056 0,150Z" fill="url(#tg)"/>
  <path d="M0,150 L0,100 C0,100 20,80 55,62 C90,44 110,52 145,68 C180,84 220,110 265,98 C310,86 340,42 375,28 C400,18 420,24 440,32 L440,150 Z" fill="#FFFFFF"/>
  <path d="M0,150 L0,115 C0,115 30,92 70,78 C110,64 140,72 180,86 C220,100 260,118 310,106 C360,94 400,50 440,42 L440,150 Z" fill="#FFFFFF" opacity="0.5"/>
</svg>
